<svg width="38" height="38" viewBox="0 0 38 38" fill="none" xmlns="http://www.w3.org/2000/svg">
    <path fill-rule="evenodd" clip-rule="evenodd" d="M31.6667 26.8594C30.0622 26.8594 28.6267 27.4317 27.5289 28.3283L12.4767 20.4116C12.5822 19.9729 12.6667 19.5341 12.6667 19.0763C12.6667 18.6185 12.5822 18.1797 12.4767 17.741L27.36 9.9006C28.5 10.8544 29.9989 11.4458 31.6667 11.4458C35.1711 11.4458 38 8.88956 38 5.72289C38 2.55623 35.1711 0 31.6667 0C28.1622 0 25.3333 2.55623 25.3333 5.72289C25.3333 6.18072 25.4178 6.61948 25.5233 7.05823L10.64 14.8986C9.5 13.9448 8.00111 13.3534 6.33333 13.3534C2.82889 13.3534 0 15.9096 0 19.0763C0 22.243 2.82889 24.7992 6.33333 24.7992C8.00111 24.7992 9.5 24.2078 10.64 23.254L25.6711 31.1898C25.5656 31.5904 25.5022 32.01 25.5022 32.4297C25.5022 35.501 28.2678 38 31.6667 38C35.0656 38 37.8311 35.501 37.8311 32.4297C37.8311 29.3584 35.0656 26.8594 31.6667 26.8594Z" fill="black" fill-opacity="0.87"/>
</svg>
