<svg width="24" height="30" viewBox="0 0 24 30" fill="none" xmlns="http://www.w3.org/2000/svg">
    <path d="M22.68 1.92C22.9733 2.26667 23.12 2.62667 23.12 3C23.12 3.16 23.1067 3.33333 23.08 3.52C23.08 3.68 23.0667 3.82666 23.04 3.96C22.96 4.25333 22.7867 4.53333 22.52 4.8C22.3067 4.96 22.0133 5.08 21.64 5.16C21.4533 5.21333 21.2667 5.25333 21.08 5.28C20.8933 5.30667 20.6933 5.34667 20.48 5.4C20.2933 5.42666 20.1067 5.44 19.92 5.44C19.7333 5.44 19.5333 5.44 19.32 5.44H17.28C16.8 5.46667 16.32 5.48 15.84 5.48C15.3867 5.48 14.9333 5.48 14.48 5.48C14.5067 6.30667 14.52 7.2 14.52 8.16C14.52 9.09333 14.5067 10.1867 14.48 11.44C14.48 12.6933 14.4667 14.1467 14.44 15.8C14.44 17.4533 14.44 19.3733 14.44 21.56V24.6C14.44 24.8667 14.4533 25.0667 14.48 25.2C14.48 25.3067 14.48 25.4133 14.48 25.52C14.48 25.6 14.4667 25.7067 14.44 25.84C14.3867 26.08 14.3467 26.36 14.32 26.68C14.32 26.8133 14.3067 26.9467 14.28 27.08C14.2533 27.1867 14.2133 27.3067 14.16 27.44C14.0533 27.5467 14 27.6267 14 27.68L13.88 27.92C13.7467 28.1867 13.4933 28.44 13.12 28.68C12.5333 28.9733 11.88 29.04 11.16 28.88C10.7067 28.8267 10.36 28.7067 10.12 28.52C9.88 28.28 9.70667 28.04 9.6 27.8C9.44 27.5067 9.34667 27.2267 9.32 26.96C9.24 26.72 9.2 26.4667 9.2 26.2V5.64C9.04 5.64 8.70667 5.64 8.2 5.64C7.69333 5.64 7.14667 5.64 6.56 5.64C6 5.61333 5.46667 5.58667 4.96 5.56C4.45333 5.53333 4.10667 5.50667 3.92 5.48C3.76 5.45333 3.50667 5.41333 3.16 5.36C2.84 5.30666 2.57333 5.25333 2.36 5.2C1.8 5.04 1.36 4.78667 1.04 4.44C0.746667 4.09333 0.6 3.70667 0.6 3.28C0.6 3.12 0.6 2.96 0.6 2.8C0.6 2.64 0.626667 2.49333 0.68 2.36C0.76 2.04 0.973333 1.77333 1.32 1.56C1.42667 1.48 1.58667 1.38667 1.8 1.28C2.04 1.14667 2.26667 1.05333 2.48 0.999998C2.8 0.893331 3.2 0.813331 3.68 0.759999C3.89333 0.733332 4.10667 0.719999 4.32 0.719999C4.53333 0.719999 4.76 0.719999 5 0.719999C5.93333 0.719999 6.81333 0.719999 7.64 0.719999C8.49333 0.719999 9.38667 0.706666 10.32 0.68C11.8667 0.653332 13.4 0.653332 14.92 0.68C16.4667 0.68 18 0.706666 19.52 0.759999C19.8667 0.786665 20.2 0.826665 20.52 0.88C20.84 0.933332 21.16 1.02667 21.48 1.16C21.72 1.24 21.9467 1.34667 22.16 1.48C22.3733 1.58667 22.5467 1.73333 22.68 1.92Z" fill="black"/>
</svg>
