<svg width="34" height="37" viewBox="0 0 34 37" fill="none" xmlns="http://www.w3.org/2000/svg">
    <path d="M31.5144 9.31748C32.6729 9.31748 33.6144 8.37598 33.6144 7.21748C33.6144 6.05898 32.6729 5.11748 31.5144 5.11748H29.5999V3.75248C29.5999 2.18798 28.3294 0.91748 26.7649 0.91748H7.19985C5.65285 0.91748 4.39985 2.17048 4.39985 3.71748V5.11748H2.81436C1.65586 5.11748 0.714355 6.05898 0.714355 7.21748C0.714355 8.37598 1.65586 9.31748 2.81436 9.31748" fill="#27272A"/>
    <path d="M6.12876 34.43C6.30376 35.8335 7.50076 36.887 8.91476 36.887H24.8958C26.3238 36.887 27.5278 35.823 27.7063 34.4055L30.8633 9.31403H2.96826L6.12526 34.43H6.12876ZM16.9998 17.0245C19.5618 17.0245 21.6408 19.1035 21.6408 21.6655C21.6408 24.2275 19.5618 26.3065 16.9998 26.3065C14.4378 26.3065 12.3588 24.2275 12.3588 21.6655C12.3588 19.1035 14.4378 17.0245 16.9998 17.0245Z" fill="#27272A"/>
</svg>
